<svg width="41" height="38" viewBox="0 0 41 38" fill="none" xmlns="http://www.w3.org/2000/svg">
<rect width="41" height="38" rx="10" fill="url(#paint0_linear_33_2138)"/>
<path d="M25.15 12H15.85C14.8 12 14 12.8 14 13.85V23.15C14 24.2 14.8 25 15.85 25H25.15C26.2 25 27 24.2 27 23.15V13.85C27 12.8 26.2 12 25.15 12ZM20.5 22.4C22.65 22.4 24.4 20.7 24.4 18.65C24.4 18.3 24.35 17.9 24.25 17.6H25.35V22.9C25.35 23.15 25.15 23.4 24.85 23.4H16.15C15.9 23.4 15.65 23.2 15.65 22.9V17.55H16.8C16.7 17.9 16.65 18.25 16.65 18.6C16.6 20.7 18.35 22.4 20.5 22.4ZM20.5 20.9C19.1 20.9 18 19.8 18 18.45C18 17.1 19.1 16 20.5 16C21.9 16 23 17.1 23 18.45C23 19.85 21.9 20.9 20.5 20.9ZM25.3 15.55C25.3 15.85 25.05 16.1 24.75 16.1H23.35C23.05 16.1 22.8 15.85 22.8 15.55V14.2C22.8 13.9 23.05 13.65 23.35 13.65H24.75C25.05 13.65 25.3 13.9 25.3 14.2V15.55Z" fill="white"/>
<defs>
<linearGradient id="paint0_linear_33_2138" x1="8.7125" y1="33.725" x2="33.7447" y2="5.69738" gradientUnits="userSpaceOnUse">
<stop stop-color="#EEA054"/>
<stop offset="0.502762" stop-color="#D64763"/>
<stop offset="1" stop-color="#B62A99"/>
</linearGradient>
</defs>
</svg>
