<svg width="130" height="43" viewBox="0 0 130 43" fill="none" xmlns="http://www.w3.org/2000/svg">
<path d="M80.4063 23.8008V13.4014C80.4068 13.0331 80.5578 12.68 80.8262 12.4197C81.0945 12.1594 81.4583 12.0132 81.8376 12.0132H91.6488C91.9808 12.0142 92.299 12.1428 92.5337 12.3709C92.7684 12.599 92.9006 12.9081 92.9015 13.2306C92.9015 13.5536 92.7696 13.8635 92.5348 14.0923C92.3 14.3211 91.9814 14.4501 91.6488 14.4511H82.9123V17.3805H89.6884C89.8532 17.38 90.0166 17.4111 90.169 17.4721C90.3215 17.533 90.46 17.6225 90.5768 17.7355C90.6935 17.8486 90.7861 17.9829 90.8493 18.1308C90.9125 18.2786 90.9451 18.4372 90.9451 18.5973V18.6159C90.9452 18.7761 90.9127 18.9347 90.8495 19.0826C90.7864 19.2306 90.6937 19.3649 90.577 19.478C90.4602 19.5911 90.3217 19.6807 90.1692 19.7417C90.0167 19.8027 89.8533 19.8338 89.6884 19.8333H82.9123V22.762H91.6488C91.8133 22.762 91.9762 22.7935 92.1282 22.8547C92.2802 22.9158 92.4183 23.0054 92.5346 23.1184C92.6509 23.2314 92.7432 23.3655 92.8061 23.5131C92.8691 23.6608 92.9015 23.819 92.9015 23.9788C92.902 24.1389 92.87 24.2975 92.8073 24.4456C92.7446 24.5936 92.6524 24.7282 92.536 24.8416C92.4196 24.955 92.2813 25.045 92.1291 25.1064C91.9769 25.1677 91.8136 25.1994 91.6488 25.1994H81.8376C81.6489 25.1994 81.462 25.1631 81.2878 25.0927C81.1136 25.0224 80.9554 24.9192 80.8224 24.7892C80.6894 24.6592 80.5842 24.505 80.5127 24.3354C80.4413 24.1658 80.4051 23.9841 80.4063 23.8008Z" fill="#0E0E0F"/>
<path d="M99.6666 23.9736V14.4453H95.3787C95.0454 14.4453 94.7258 14.3167 94.4901 14.0878C94.2545 13.8589 94.1221 13.5484 94.1221 13.2247C94.1229 12.9015 94.2557 12.5919 94.4913 12.3637C94.7269 12.1355 95.046 12.0073 95.3787 12.0073H106.443C106.775 12.0073 107.095 12.1355 107.33 12.3637C107.566 12.5919 107.698 12.9015 107.699 13.2247C107.699 13.5484 107.567 13.8589 107.331 14.0878C107.096 14.3167 106.776 14.4453 106.443 14.4453H102.173V23.9736C102.173 24.1337 102.141 24.2923 102.078 24.4404C102.016 24.5884 101.924 24.723 101.807 24.8364C101.691 24.9498 101.553 25.0398 101.4 25.1012C101.248 25.1625 101.085 25.1942 100.92 25.1941C100.755 25.1942 100.592 25.1627 100.439 25.1013C100.287 25.04 100.149 24.95 100.032 24.8366C99.9159 24.7232 99.8237 24.5886 99.7609 24.4405C99.6981 24.2924 99.6661 24.1337 99.6666 23.9736Z" fill="#0E0E0F"/>
<path d="M78.2557 23.9828V13.2191C78.2557 12.8988 78.1247 12.5915 77.8915 12.3649C77.6583 12.1383 77.3421 12.0109 77.0122 12.0107H76.1028C75.9213 12.0108 75.742 12.0493 75.5774 12.1238C75.4129 12.1983 75.2671 12.3068 75.1504 12.4418L67.1923 21.6399V13.2191C67.1916 12.8991 67.0602 12.5924 66.827 12.3663C66.5937 12.1403 66.2777 12.0133 65.9482 12.0133H65.929C65.5992 12.0135 65.2829 12.1409 65.0497 12.3675C64.8165 12.5941 64.6855 12.9013 64.6855 13.2217V23.9853C64.6855 24.3057 64.8165 24.613 65.0497 24.8396C65.2829 25.0661 65.5992 25.1935 65.929 25.1937H66.8384C67.0199 25.1938 67.1992 25.1553 67.3637 25.081C67.5283 25.0066 67.6741 24.8982 67.7909 24.7633L75.7681 15.5466V23.986C75.7681 24.3065 75.8992 24.6138 76.1325 24.8404C76.3658 25.067 76.6823 25.1944 77.0122 25.1944C77.1758 25.1943 77.3378 25.1628 77.4889 25.1019C77.64 25.0409 77.7772 24.9516 77.8927 24.8391C78.0082 24.7265 78.0997 24.593 78.162 24.446C78.2243 24.2991 78.2561 24.1417 78.2557 23.9828Z" fill="#0E0E0F"/>
<path d="M122.679 23.9826V13.219C122.678 12.899 122.547 12.5923 122.313 12.3662C122.08 12.1401 121.764 12.0132 121.435 12.0132H120.525C120.344 12.0133 120.164 12.052 120 12.1264C119.835 12.2009 119.69 12.3094 119.573 12.4442L111.615 21.6397V13.219C111.615 12.899 111.483 12.5923 111.25 12.3662C111.017 12.1401 110.701 12.0132 110.371 12.0132H110.355C110.025 12.0132 109.709 12.1405 109.476 12.3671C109.242 12.5937 109.111 12.9011 109.111 13.2216V23.9852C109.111 24.3057 109.242 24.613 109.476 24.8396C109.709 25.0663 110.025 25.1936 110.355 25.1936H111.265C111.446 25.1936 111.626 25.155 111.79 25.0807C111.955 25.0063 112.1 24.898 112.217 24.7632L120.19 15.5465V23.9858C120.19 24.3063 120.322 24.6137 120.555 24.8403C120.788 25.0669 121.105 25.1942 121.435 25.1942C121.598 25.1942 121.76 25.1629 121.911 25.1019C122.063 25.041 122.2 24.9517 122.315 24.8391C122.431 24.7266 122.523 24.593 122.585 24.446C122.647 24.2991 122.679 24.1416 122.679 23.9826Z" fill="#0E0E0F"/>
<path d="M67.5759 31.08V32.0564H67.0296V31.5425H65.2319V32.0564H64.6855V31.0774H64.7874C64.9402 31.0729 65.048 30.9637 65.1115 30.7517C65.186 30.454 65.2253 30.149 65.2286 29.8427L65.257 29.0718H67.2161V31.0806L67.5759 31.08ZM65.675 30.6399C65.6535 30.7985 65.5924 30.9495 65.4971 31.08H66.6367V29.5382H65.763L65.7517 29.8979C65.7445 30.1478 65.7189 30.3968 65.675 30.6431V30.6399Z" fill="#0E0E0F"/>
<path d="M71.741 30.5495H71.3699V31.5465H70.7905V30.5495H70.4122L69.8414 31.5465H69.1602L69.9241 30.252L69.2071 29.0713H69.8302L70.4016 30.0715H70.7905V29.0713H71.3699V30.0715H71.7489L72.3236 29.0713H72.946L72.233 30.252L72.9937 31.5465H72.3131L71.741 30.5495Z" fill="#0E0E0F"/>
<path d="M74.7351 29.0713H75.3211V30.6837L76.5367 29.0713H77.0884V31.5465H76.505V29.9405L75.2893 31.5465H74.7324L74.7351 29.0713Z" fill="#0E0E0F"/>
<path d="M81.5035 29.0713V31.5465H80.9175V29.5383H79.7667V31.5465H79.1807V29.0713H81.5035Z" fill="#0E0E0F"/>
<path d="M83.4648 30.3296H84.4953V30.7716H83.4655L83.4648 30.3296Z" fill="#0E0E0F"/>
<path d="M88.2859 29.3784H87.4115V31.5465H87.055V29.3784H86.1846V29.0713H88.2859V29.3784Z" fill="#0E0E0F"/>
<path d="M92.1633 29.0713L91.031 31.1122C90.9566 31.2573 90.8475 31.3828 90.7129 31.4784C90.5962 31.5567 90.4578 31.5986 90.316 31.5985C90.1977 31.5972 90.081 31.5719 89.9734 31.524L90.0687 31.2414C90.1455 31.2697 90.2266 31.2854 90.3088 31.2876C90.4688 31.2876 90.6011 31.2054 90.7056 31.0396L90.7645 30.9516L89.7373 29.0739H90.1262L90.953 30.6433L91.8015 29.0739L92.1633 29.0713Z" fill="#0E0E0F"/>
<path d="M95.7664 29.3006C95.8559 29.3816 95.9274 29.4795 95.9762 29.5885C96.0251 29.6974 96.0503 29.8149 96.0503 29.9337C96.0503 30.0525 96.0251 30.1701 95.9762 30.279C95.9274 30.3879 95.8559 30.4859 95.7664 30.5668C95.5779 30.7204 95.3173 30.7968 94.9879 30.7968H94.3576V31.5465H93.9932V29.0713H94.9853C95.3173 29.0713 95.5779 29.1477 95.7664 29.3006ZM95.5018 30.3458C95.5594 30.2928 95.6053 30.2289 95.6367 30.158C95.668 30.0872 95.6842 30.0108 95.6842 29.9337C95.6842 29.8566 95.668 29.7803 95.6367 29.7094C95.6053 29.6386 95.5594 29.5747 95.5018 29.5216C95.3814 29.4265 95.2049 29.3784 94.9727 29.3784H94.3536V30.4897H94.9727C95.2101 30.4897 95.3834 30.4409 95.5038 30.3458H95.5018Z" fill="#0E0E0F"/>
<path d="M99.8282 30.129C99.9896 30.2613 100.07 30.4558 100.07 30.7123C100.07 30.9834 99.9835 31.1898 99.8097 31.3316C99.636 31.4733 99.3878 31.544 99.065 31.5436H98.0127V29.0684H98.3732V29.9363H99.1311C99.4341 29.9363 99.6664 30.0005 99.8282 30.129ZM99.5372 31.1247C99.595 31.0739 99.6402 31.011 99.6694 30.9408C99.6986 30.8706 99.7111 30.7949 99.7059 30.7194C99.7059 30.3802 99.4876 30.2106 99.0511 30.2106H98.3732V31.2641H99.0511C99.2621 31.2667 99.4235 31.2211 99.5372 31.1273V31.1247ZM100.474 29.069H100.832V31.5442H100.471L100.474 29.069Z" fill="#0E0E0F"/>
<path d="M53.1145 36.378L56.3045 36.6755C55.8933 37.8432 55.3925 38.9794 54.8064 40.0745L54.0841 40.3359L37.7567 41.3291L15.7657 36.7545L7.86593 39.874C6.00191 36.2957 5.03339 32.3408 5.03909 28.3305C5.03909 27.5435 5.07679 26.763 5.14822 25.9947L6.97832 25.1146L10.5215 21.7856L13.5738 20.7134L15.0468 20.0363L17.2638 19.1401L17.5356 19.383L17.3544 21.3815L16.4443 22.6426C16.4443 22.6426 14.646 23.7572 14.6023 23.824C14.5587 23.8908 12.8384 24.5621 12.8384 24.5621L11.2966 24.8782L9.30779 26.2324L11.542 25.9472L15.0792 24.8962L16.0713 24.5621L17.6223 23.5535L20.3559 22.4781L22.0973 19.5378L25.0121 23.0948L27.8615 25.9683L32.4252 28.3408L34.7328 30.4273L37.2415 34.0512L37.1972 32.5781L36.6092 31.0408L35.3896 28.7802L33.9881 27.1979L30.7796 25.1994L29.3999 24.1914L28.3364 21.9526V21.2267L29.6936 21.2909L31.1857 22.2546L35.795 27.4793L42.1934 32.442L47.9132 35.1401L53.1145 36.378Z" fill="#0E0E0F"/>
<path d="M6.49964 22.6328L5.5459 23.3196C7.94415 11.5827 18.602 2.7373 31.3896 2.7373C44.3961 2.7373 55.2001 11.8923 57.3497 23.9273L54.9223 22.1504L53.9064 21.6885L51.9394 21.6005L50.7164 21.4913L48.9306 20.1062L45.9471 18.4173L45.0872 19.2281L43.8676 19.7992C43.8676 19.7992 42.263 20.3703 42.1943 20.3703C42.1255 20.3703 40.9058 21.2696 40.9058 21.2696L39.1419 22.6772L37.0406 24.3474L36.6563 24.3018L35.8428 23.4243L33.9909 21.2279L30.9636 19.5576L26.0792 18.021L24.9938 17.2738L23.7715 16.2209L21.6451 15.3858L20.1537 14.9271L19.4089 13.8485L18.7515 13.2774L17.26 12.4455C17.26 12.4455 16.8532 12.6639 16.672 12.7519C16.4908 12.8399 14.8644 14.6412 14.8644 14.6412L13.7327 16.5742L12.5574 17.4094L9.43892 19.778L6.49964 22.6328Z" fill="url(#paint0_linear_33_2098)"/>
<path d="M56.0297 31.3264L57.4775 31.9431C57.316 33.0739 57.0729 34.1923 56.75 35.2901L48.544 33.6532L45.7422 32.2919L41.5139 29.0876L39.5469 26.9368L42.3056 24.8811L45.0173 23.7324L48.3164 24.1943L50.5553 25.8864C50.5553 25.8864 52.7009 29.2212 52.7009 29.288C52.7009 29.3548 54.3742 32.0343 54.3742 32.0343L56.0687 32.9979L56.0297 31.3264Z" fill="#0E0E0F"/>
<path d="M57.7405 28.3303C57.7405 28.7825 57.728 29.2322 57.7028 29.6793L54.9911 27.0455L54.8535 26.2977L55.0572 26.1885L57.4773 27.571L57.7306 27.7714C57.7372 27.9577 57.7405 28.1459 57.7405 28.3303Z" fill="#0E0E0F"/>
<defs>
<linearGradient id="paint0_linear_33_2098" x1="31.4478" y1="25.2353" x2="31.4478" y2="3.44589" gradientUnits="userSpaceOnUse">
<stop stop-color="#DC083D"/>
<stop offset="1" stop-color="#FAE663"/>
</linearGradient>
</defs>
</svg>
