<svg width="41" height="38" viewBox="0 0 41 38" fill="none" xmlns="http://www.w3.org/2000/svg">
<rect width="41" height="38" rx="10" fill="#2F89CE"/>
<circle cx="21" cy="19" r="15" fill="#2F89CE"/>
<path d="M13.263 19.2399L16.7116 20.5175L18.0559 24.8148C18.1144 25.1051 18.4651 25.1632 18.6989 24.989L20.6278 23.4211C20.8031 23.2468 21.0954 23.2468 21.3292 23.4211L24.7777 25.9181C25.0115 26.0924 25.3622 25.9762 25.4207 25.6859L27.9925 13.4908C28.0509 13.2004 27.7587 12.9101 27.4664 13.0262L13.263 18.485C12.9123 18.6011 12.9123 19.1238 13.263 19.2399ZM17.8806 19.8787L24.6608 15.7556C24.7777 15.6975 24.8946 15.8717 24.7777 15.9298L19.225 21.0982C19.0496 21.2724 18.8742 21.5047 18.8742 21.7951L18.6989 23.1888C18.6989 23.363 18.4066 23.4211 18.3482 23.1888L17.6468 20.6336C17.4714 20.3433 17.5884 19.9948 17.8806 19.8787Z" fill="white"/>
</svg>
