<svg width="41" height="38" viewBox="0 0 41 38" fill="none" xmlns="http://www.w3.org/2000/svg">
<rect width="41" height="38" rx="10" fill="#48C95F"/>
<circle cx="20" cy="19" r="15" fill="#48C95F"/>
<path d="M25.8049 14.1875C24.3937 12.7812 22.5122 12 20.5261 12C16.3972 12 13.0523 15.3333 13.0523 19.4479C13.0523 20.75 13.4181 22.0521 14.0453 23.1458L13 27L16.9721 25.9583C18.0697 26.5312 19.2718 26.8438 20.5261 26.8438C24.6551 26.8438 28 23.5104 28 19.3958C27.9477 17.4688 27.216 15.5937 25.8049 14.1875ZM24.1324 22.1042C23.9756 22.5208 23.2439 22.9375 22.878 22.9896C22.5645 23.0417 22.1463 23.0417 21.7282 22.9375C21.4669 22.8333 21.101 22.7292 20.6829 22.5208C18.8014 21.7396 17.5993 19.8646 17.4948 19.7083C17.3902 19.6042 16.7108 18.7187 16.7108 17.7812C16.7108 16.8437 17.1812 16.4271 17.338 16.2187C17.4948 16.0104 17.7038 16.0104 17.8606 16.0104C17.9652 16.0104 18.1219 16.0104 18.2265 16.0104C18.331 16.0104 18.4878 15.9583 18.6446 16.3229C18.8014 16.6875 19.1672 17.625 19.2195 17.6771C19.2718 17.7812 19.2718 17.8854 19.2195 17.9896C19.1672 18.0938 19.115 18.1979 19.0105 18.3021C18.9059 18.4062 18.8014 18.5625 18.7491 18.6146C18.6446 18.7187 18.5401 18.8229 18.6446 18.9792C18.7491 19.1875 19.115 19.7604 19.6899 20.2812C20.4216 20.9062 20.9965 21.1146 21.2056 21.2188C21.4146 21.3229 21.5192 21.2708 21.6237 21.1667C21.7282 21.0625 22.0941 20.6458 22.1986 20.4375C22.3031 20.2292 22.4599 20.2812 22.6167 20.3333C22.7735 20.3854 23.7143 20.8542 23.8711 20.9583C24.0801 21.0625 24.1847 21.1146 24.2369 21.1667C24.2892 21.3229 24.2892 21.6875 24.1324 22.1042Z" fill="white"/>
</svg>
